<?xml version="1.0" encoding="UTF-8"?>
<svg width="20px" height="20px" viewBox="0 0 20 20" version="1.1" xmlns="http://www.w3.org/2000/svg" xmlns:xlink="http://www.w3.org/1999/xlink">
    <!-- Generator: Sketch 55.1 (78136) - https://sketchapp.com -->
    <title>calendar</title>
    <desc>Created with Sketch.</desc>
    <g id="calendar" stroke="none" stroke-width="1" fill="none" fill-rule="evenodd">
        <rect fill="#FFFFFF" opacity="0" x="0" y="0" width="20" height="20"></rect>
        <g id="calendar-2" transform="translate(1.000000, 2.000000)" fill="#4D6978" fill-rule="nonzero">
            <g id="calendar">
                <path d="M15.1558709,1.10546565 L12.9105807,1.10546565 L12.9105807,0.57410687 C12.9105807,0.255328244 12.6860646,0.0427480916 12.3492258,0.0427480916 C12.0123871,0.0427480916 11.7878709,0.255267176 11.7878709,0.57410687 L11.7878709,1.10546565 L6.17464516,1.10546565 L6.17464516,0.57410687 C6.17464516,0.255328244 5.95012903,0.0427480916 5.61329032,0.0427480916 C5.27651612,0.0427480916 5.05193548,0.255267176 5.05193548,0.57410687 L5.05193548,1.10546565 L2.80664516,1.10546565 C1.23490322,1.10546565 2.84217094e-14,2.27438168 2.84217094e-14,3.7621374 L2.84217094e-14,13.3261679 C2.84217094e-14,14.8139237 1.23490322,15.9828397 2.80664516,15.9828397 L15.1558709,15.9828397 C16.7276129,15.9828397 17.9625162,14.8139237 17.9625162,13.3261679 L17.9625162,3.7621374 C17.9625162,2.27438168 16.7276129,1.10546565 15.1558709,1.10546565 Z M1.12264517,3.7621374 C1.12264517,2.912 1.90851613,2.16812214 2.80664516,2.16812214 L5.05193548,2.16812214 L5.05193548,2.69948092 C5.05193548,3.01825954 5.27645161,3.23083969 5.61329032,3.23083969 C5.95006452,3.23083969 6.17464516,3.01832061 6.17464516,2.69948092 L6.17464516,2.16812214 L11.7879355,2.16812214 L11.7879355,2.69948092 C11.7879355,3.01825954 12.0124516,3.23083969 12.3492903,3.23083969 C12.686129,3.23083969 12.9106452,3.01832061 12.9106452,2.69948092 L12.9106452,2.16812214 L15.1559355,2.16812214 C16.0540645,2.16812214 16.8399355,2.912 16.8399355,3.7621374 L16.8399355,5.35615267 L1.12264517,5.35615267 L1.12264517,3.7621374 Z M16.839871,13.3261679 C16.839871,14.1763053 16.054,14.9201832 15.1558709,14.9201832 L2.80664516,14.9201832 C1.90851613,14.9201832 1.12264517,14.1763053 1.12264517,13.3261679 L1.12264517,6.41880916 L16.839871,6.41880916 L16.839871,13.3261679 Z" id="Shape"></path>
                <path d="M3.92929033,13.3261679 C4.26606451,13.3261679 4.49064516,13.2199084 4.7151613,13.0073893 C4.93967742,12.7948702 5.05193548,12.4760305 5.05193548,12.2635115 C5.05193548,12.0509924 4.93967742,11.7321527 4.7151613,11.5196336 C4.26612903,11.0945954 3.59251613,11.0945954 3.14341936,11.5196336 C2.91890323,11.7321527 2.80664516,11.9446718 2.80664516,12.2635115 C2.80664516,12.4760305 2.91890323,12.7948702 3.14341936,13.0073893 C3.36793549,13.2199084 3.59251613,13.3261679 3.92929033,13.3261679 Z" id="Shape"></path>
                <path d="M3.92929033,10.1381374 C4.26606451,10.1381374 4.49064516,10.0318779 4.7151613,9.81935878 C4.93967742,9.60683969 5.05193548,9.288 5.05193548,9.07548092 C5.05193548,8.86296183 4.93967742,8.54412214 4.7151613,8.33160305 C4.26612903,7.90656489 3.59251613,7.90656489 3.14341936,8.33160305 C2.91890323,8.54412214 2.80664516,8.75664122 2.80664516,9.07548092 C2.80664516,9.39432061 2.91890323,9.60683969 3.14341936,9.81935878 C3.36793549,10.0318779 3.59251613,10.1381374 3.92929033,10.1381374 Z" id="Shape"></path>
                <path d="M7.29729032,13.3261679 C7.63406452,13.3261679 7.85864516,13.2199084 8.08316129,13.0073893 C8.30767741,12.7948702 8.41993548,12.4760305 8.41993548,12.2635115 C8.41993548,12.0509924 8.30767741,11.7321527 8.08316129,11.5196336 C7.63412903,11.0945954 6.96051613,11.0945954 6.51141936,11.5196336 C6.28690322,11.7321527 6.17464516,12.0509924 6.17464516,12.2635115 C6.17464516,12.4760305 6.28690322,12.7948702 6.51141936,13.0073893 C6.73593549,13.2199084 6.96051613,13.3261679 7.29729032,13.3261679 Z" id="Shape"></path>
                <path d="M7.29729032,10.1381374 C7.63406452,10.1381374 7.85864516,10.0318779 8.08316129,9.81935878 C8.30767741,9.60683969 8.41993548,9.288 8.41993548,9.07548092 C8.41993548,8.86296183 8.30767741,8.54412214 8.08316129,8.33160305 C7.63412903,7.90656489 6.96051613,7.90656489 6.51141936,8.33160305 C6.28690322,8.54412214 6.17464516,8.86296183 6.17464516,9.07548092 C6.17464516,9.288 6.28690322,9.60683969 6.51141936,9.81935878 C6.73593549,10.0318779 6.96051613,10.1381374 7.29729032,10.1381374 Z" id="Shape"></path>
                <path d="M10.6652258,13.3261679 C11.002,13.3261679 11.2265806,13.2199084 11.4510967,13.0073893 C11.6756129,12.7948702 11.7878709,12.5823511 11.7878709,12.2635115 C11.7878709,11.9446718 11.6756129,11.7321527 11.4510967,11.5196336 C11.0020645,11.0945954 10.3284516,11.0945954 9.87935484,11.5196336 C9.65483871,11.7321527 9.54258065,12.0509924 9.54258065,12.2635115 C9.54258065,12.4760305 9.65483871,12.7948702 9.87935484,13.0073893 C10.103871,13.2199084 10.3284516,13.3261679 10.6652258,13.3261679 Z" id="Shape"></path>
                <path d="M10.6652258,10.1381374 C11.002,10.1381374 11.2265806,10.0318779 11.4510967,9.81935878 C11.6756129,9.60683969 11.7878709,9.39432061 11.7878709,9.07548092 C11.7878709,8.86296183 11.6756129,8.54412214 11.4510967,8.33160305 C11.0020645,7.90656489 10.3284516,7.90656489 9.87935484,8.33160305 C9.65483871,8.54412214 9.54258065,8.86296183 9.54258065,9.07548092 C9.54258065,9.288 9.65483871,9.60683969 9.87935484,9.81935878 C10.103871,10.0318779 10.3284516,10.1381374 10.6652258,10.1381374 Z" id="Shape"></path>
                <path d="M14.0332259,13.3261679 C14.37,13.3261679 14.5945806,13.2199084 14.8190968,13.0073893 C15.0436129,12.7948702 15.1558709,12.4760305 15.1558709,12.2635115 C15.1558709,12.0509924 15.0436129,11.7321527 14.8190968,11.5196336 C14.3700645,11.0945954 13.6964516,11.0945954 13.2473549,11.5196336 C13.0228387,11.7321527 12.9105807,11.9446718 12.9105807,12.2635115 C12.9105807,12.4760305 13.0228387,12.7948702 13.2473549,13.0073893 C13.471871,13.2199084 13.6964516,13.3261679 14.0332259,13.3261679 Z" id="Shape"></path>
                <path d="M14.0332259,10.1381374 C14.37,10.1381374 14.5945806,10.0318779 14.8190968,9.81935878 C15.0436129,9.60683969 15.1558709,9.39432061 15.1558709,9.07548092 C15.1558709,8.86296183 15.0436129,8.54412214 14.8190968,8.33160305 C14.3700645,7.90656489 13.6964516,7.90656489 13.2473549,8.33160305 C13.0228387,8.54412214 12.9105807,8.86296183 12.9105807,9.07548092 C12.9105807,9.288 13.0228387,9.60683969 13.2473549,9.81935878 C13.471871,10.0318779 13.6964516,10.1381374 14.0332259,10.1381374 Z" id="Shape"></path>
            </g>
        </g>
    </g>
</svg>