<?xml version="1.0" encoding="UTF-8"?>
<svg width="20px" height="20px" viewBox="0 0 20 20" version="1.1" xmlns="http://www.w3.org/2000/svg" xmlns:xlink="http://www.w3.org/1999/xlink">
    <!-- Generator: Sketch 55 (78076) - https://sketchapp.com -->
    <title>drop-down</title>
    <desc>Created with Sketch.</desc>
    <g id="drop-down" stroke="none" stroke-width="1" fill="none" fill-rule="evenodd">
        <path d="M2.43117764,6.71941364 C2.48810384,6.77350901 2.56474619,6.84683653 2.66220208,6.94076776 C2.93530459,7.20399302 3.27849758,7.5393651 3.69707931,7.95351114 C4.89114575,9.13492412 6.4501878,10.7108151 8.41653895,12.7341649 C8.86447118,13.1950814 9.46962634,13.5736716 10.0166971,13.5736716 C10.4776227,13.5736716 11.0382525,13.2966724 11.668109,12.7299201 L17.6828061,6.69013077 C17.9796639,6.44650939 17.9796639,6.23333606 17.6176429,5.803703 C17.2776172,5.40017298 16.9153049,5.40017298 16.3512085,5.83712905 L10.0034215,12.1112466 L9.65201101,11.7706444 C4.55345137,6.82889883 4.55345137,6.82889883 3.61000187,5.90123792 C3.3215284,5.7144802 2.89011291,5.6122672 2.61414811,5.85616675 C2.44290076,6.00751631 2.37667973,6.20129369 2.38753353,6.44228649 C2.39239551,6.55023954 2.41106558,6.64760533 2.43117764,6.71941364 Z" id="Path" stroke="#88B3D0" fill="#88B3D0"></path>
    </g>
</svg>