<?xml version="1.0" encoding="UTF-8"?>
<svg width="20px" height="20px" viewBox="0 0 20 20" version="1.1" xmlns="http://www.w3.org/2000/svg" xmlns:xlink="http://www.w3.org/1999/xlink">
    <!-- Generator: Sketch 55 (78076) - https://sketchapp.com -->
    <title>drop-down</title>
    <desc>Created with Sketch.</desc>
    <g id="drop-down" stroke="none" stroke-width="1" fill="none" fill-rule="evenodd">
        <path d="M3.92143984,7.26819913 C3.96303496,7.30708956 4.01519406,7.35611745 4.07839585,7.41586936 C4.29378308,7.61949967 4.56434425,7.87884269 4.89425413,8.19901897 C5.83495684,9.11196737 7.0629926,10.3295542 8.61170699,11.8927084 C8.94637855,12.2305004 9.4018669,12.5100124 9.79874127,12.5100124 C10.133517,12.5100124 10.5528901,12.3067657 11.0270597,11.8885034 L15.7709525,7.21661297 C15.9503782,7.07217802 15.9503782,6.98537045 15.7052105,6.69997452 C15.47748,6.43487683 15.2518311,6.43487683 14.8575814,6.73314768 L9.78898218,11.6471895 L9.44108239,11.3164335 C5.42667554,7.4998493 5.42667554,7.4998493 4.70026982,6.79624917 C4.68396972,6.78589814 4.63802971,6.76143426 4.5735155,6.73546389 C4.42677531,6.67639324 4.28479,6.6542461 4.17726417,6.67929795 C4.12621894,6.6911907 4.08109479,6.71379853 4.03707396,6.75196097 C3.97724594,6.80382694 3.94104212,6.85931828 3.92003176,6.92348626 C3.88759906,7.02253936 3.89122094,7.14623486 3.92143984,7.26819913 Z" id="Path" stroke="#88B3D0" fill="#88B3D0"></path>
    </g>
</svg>