<?xml version="1.0" encoding="UTF-8"?>
<svg width="20px" height="20px" viewBox="0 0 20 20" version="1.1" xmlns="http://www.w3.org/2000/svg" xmlns:xlink="http://www.w3.org/1999/xlink">
    <!-- Generator: Sketch 55.1 (78136) - https://sketchapp.com -->
    <title>map_placeholder</title>
    <desc>Created with Sketch.</desc>
    <g id="map_placeholder" stroke="none" stroke-width="1" fill="none" fill-rule="evenodd">
        <g id="group" transform="translate(3.000000, 1.000000)" fill="#0C86D9" fill-rule="nonzero">
            <path d="M13.4234767,16.7524974 L11.0627604,11.9101837 C11.0156503,11.8135619 10.9340207,11.7395271 10.8361282,11.6991352 L9.66169819,11.1921507 L11.6966658,7.88489873 C11.7015272,7.87696279 11.7061088,7.86892511 11.7104806,7.86071785 C12.1150609,7.0949675 12.3202189,6.26749317 12.3202189,5.4014244 C12.3202189,3.94450118 11.7310453,2.57863778 10.6612228,1.5554781 C9.59157513,0.532555817 8.17449482,-0.0199415921 6.67113342,0.000542628356 C5.21103497,0.020178992 3.83627332,0.588887423 2.80002591,1.60197456 C1.76388342,2.61499388 1.18848964,3.95267452 1.17981606,5.36869713 C1.1745,6.23401978 1.38535881,7.09571361 1.78944948,7.86068394 C1.79378627,7.86885728 1.79836788,7.87692887 1.80322927,7.88486481 L3.83816192,11.1920829 L2.65694689,11.7018483 C2.56031347,11.743529 2.48232124,11.8174282 2.43713472,11.9101498 L0.076488342,16.7524974 C-0.00251813472,16.9144381 0.0308121762,17.1070033 0.160006477,17.2350975 C0.289165803,17.3631917 0.486839378,17.399887 0.655659326,17.3270391 L3.6129987,16.0503024 L6.57033808,17.3270391 C6.68473834,17.3763844 6.81536658,17.3763844 6.92976684,17.3270391 L9.88710622,16.0503024 L12.8444456,17.3270391 C12.9022228,17.3519661 12.9633925,17.3641074 13.0240376,17.3641074 C13.1405363,17.3641074 13.2551464,17.3194084 13.3400984,17.2351314 C13.4691878,17.1070033 13.5024832,16.9145059 13.4234767,16.7524974 Z M2.56965155,7.45795195 C2.22935363,6.8091041 2.05906477,6.10799435 2.06348907,5.37381818 C2.07854534,2.91744136 4.15104016,0.891368818 6.6834443,0.857352803 C7.94831736,0.840870466 9.14082902,1.30498728 10.0407124,2.16562977 C10.9408756,3.02647574 11.4365635,4.17562694 11.4365635,5.40145831 C11.4365635,6.12583325 11.2662746,6.81761658 10.9303834,7.45795195 L7.12946891,13.6353688 C7.01342487,13.8239322 6.82547409,13.8442807 6.75003497,13.8442807 C6.67456088,13.8442807 6.4866101,13.8239322 6.37060104,13.6353688 L2.56965155,7.45795195 Z M10.0667332,15.1898973 C9.9523329,15.140552 9.82170466,15.140552 9.7073044,15.1898973 L6.74996503,16.466634 L3.79262565,15.1898973 C3.67822539,15.140552 3.54759715,15.140552 3.43319689,15.1898973 L1.38448446,16.0743815 L3.16599482,12.4201526 L4.29418912,11.9332793 L5.61159326,14.0743891 C5.8530544,14.466845 6.27861917,14.7011587 6.74989508,14.7011587 C7.22117098,14.7011587 7.64673575,14.466845 7.88819689,14.074423 L9.20560104,11.9332793 L10.3339003,12.4203561 L12.1153057,16.0744154 L10.0667332,15.1898973 Z" id="Shape"></path>
            <path d="M6.7501399,3.44592746 C5.63817358,3.44592746 4.73356865,4.32312011 4.73356865,5.40135657 C4.73356865,6.47959303 5.63817358,7.35678568 6.7501399,7.35678568 C7.86207124,7.35678568 8.76667617,6.47959303 8.76667617,5.40135657 C8.76667617,4.32312011 7.86207124,3.44592746 6.7501399,3.44592746 Z M6.7501399,6.49990768 C6.12546762,6.49994159 5.61722409,6.00716722 5.61722409,5.40135657 C5.61722409,4.79561375 6.12543264,4.30280546 6.7501399,4.30280546 C7.37481218,4.30280546 7.88302073,4.79561375 7.88302073,5.40135657 C7.88302073,6.00709939 7.37481218,6.49990768 6.7501399,6.49990768 Z" id="Shape"></path>
        </g>
    </g>
</svg>