<?xml version="1.0" encoding="UTF-8"?>
<svg width="20px" height="20px" viewBox="0 0 20 20" version="1.1" xmlns="http://www.w3.org/2000/svg" xmlns:xlink="http://www.w3.org/1999/xlink">
    <!-- Generator: Sketch 55.1 (78136) - https://sketchapp.com -->
    <title>map_refresh</title>
    <desc>Created with Sketch.</desc>
    <g id="map_refresh" stroke="none" stroke-width="1" fill="none" fill-rule="evenodd">
        <g id="group" transform="translate(5.000000, 1.000000)" fill="#0C86D9" fill-rule="nonzero">
            <path d="M7.61364347,10.3305301 L9.44028271,7.27788681 C9.44464643,7.27056182 9.44875899,7.26314292 9.45268323,7.25556749 C9.81584491,6.5487684 10,5.78499714 10,4.98560263 C10,3.64084058 9.47114263,2.38012811 8.51084246,1.43573633 C7.55069921,0.491563674 6.2786915,-0.0183997481 4.92923566,0.000507495575 C3.61861376,0.0186321547 2.38459237,0.543558593 1.45443006,1.47865326 C0.524361924,2.41368534 0.00787367649,3.6483847 8.80481313e-05,4.95539487 C-0.00468378397,5.7541007 0.184588504,6.54945707 0.547310676,7.25553619 C0.551203491,7.26308031 0.555316062,7.27053051 0.55967977,7.2778555 L2.38628762,10.3304676 C3.71046846,12.4658664 4.46533835,13.6224104 4.65089727,13.8000996 C4.92923566,14.0666335 5.14073748,14.0666335 5.37121397,13.8000996 C5.52486497,13.6224104 6.27234147,12.4658872 7.61364347,10.3305301 Z M1.47635639,6.86885959 C1.17089623,6.26996326 0.999783213,5.48471578 1.0037627,4.80706013 C1.01726947,2.53978737 2.69590941,0.990437112 5.01870245,0.990437112 C6.15413383,0.990437112 6.98317942,1.27459977 7.79093787,2.06898573 C8.5989475,2.86355952 9.03362475,3.67559933 9.03362475,4.80706013 C9.03362475,5.4756691 8.89729128,6.20887963 8.59578671,6.79991881 L5.31090131,12.3868276 C5.2067372,12.5608745 5.06773562,12.5930648 5.00001953,12.5930648 C4.93227205,12.5930648 4.78112012,12.5608745 4.67698741,12.3868276 L1.47635639,6.86885959 Z" id="Shape"></path>
            <path d="M5.00001446,3.29411765 C4.08098257,3.29411765 3.33333333,4.03297741 3.33333333,4.94117647 C3.33333333,5.84937553 4.08098257,6.58823529 5.00001446,6.58823529 C5.91901743,6.58823529 6.66666667,5.84937553 6.66666667,4.94117647 C6.66666667,4.03297741 5.91901743,3.29411765 5.00001446,3.29411765 Z M5.00001446,5.86648657 C4.48372747,5.86651513 4.06366797,5.45145106 4.06366797,4.94117647 C4.06366797,4.43095902 4.48369856,4.01586637 5.00001446,4.01586637 C5.51630144,4.01586637 5.93633203,4.43095902 5.93633203,4.94117647 C5.93633203,5.45139392 5.51630144,5.86648657 5.00001446,5.86648657 Z" id="Shape"></path>
        </g>
        <g id="Group-Copy" transform="translate(3.000000, 13.000000)" fill="#0C86D9">
            <path d="M0.552835102,2.8593543 L7.59860581,2.95053342 C7.92969362,2.95481802 8.1970379,3.22220171 8.2012737,3.55329015 C8.20537135,3.87358062 7.94904642,4.13654915 7.62875596,4.1406468 C7.62378136,4.14071044 7.61880615,4.14071008 7.61383156,4.1406457 L0.56806086,4.04946658 C0.236973043,4.04518198 -0.0303712335,3.77779829 -0.0346070292,3.44670985 C-0.0387046804,3.12641938 0.217620243,2.86345085 0.537910711,2.8593532 C0.542885307,2.85928956 0.547860516,2.85928992 0.552835102,2.8593543 Z" id="Rectangle" transform="translate(4.083333, 3.500000) rotate(33.000000) translate(-4.083333, -3.500000) "></path>
            <path d="M6.38616844,2.8593543 L13.4319391,2.95053342 C13.763027,2.95481802 14.0303712,3.22220171 14.034607,3.55329015 C14.0387047,3.87358062 13.7823798,4.13654915 13.4620893,4.1406468 C13.4571147,4.14071044 13.4521395,4.14071008 13.4471649,4.1406457 L6.40139419,4.04946658 C6.07030638,4.04518198 5.8029621,3.77779829 5.7987263,3.44670985 C5.79462865,3.12641938 6.05095358,2.86345085 6.37124404,2.8593532 C6.37621864,2.85928956 6.38119385,2.85928992 6.38616844,2.8593543 Z" id="Rectangle-Copy" transform="translate(9.916667, 3.500000) scale(-1, 1) rotate(33.000000) translate(-9.916667, -3.500000) "></path>
        </g>
    </g>
</svg>