<?xml version="1.0" encoding="UTF-8"?>
<svg width="20px" height="20px" viewBox="0 0 20 20" version="1.1" xmlns="http://www.w3.org/2000/svg" xmlns:xlink="http://www.w3.org/1999/xlink">
    <!-- Generator: Sketch 55.2 (78181) - https://sketchapp.com -->
    <title>refresh</title>
    <desc>Created with Sketch.</desc>
    <defs>
        <path d="M14.6897235,0.05625 C14.3396895,0.05625 14.0559415,0.351741797 14.0559415,0.716262891 L14.0559415,3.12722227 C10.793043,-0.162478125 5.58713307,-0.0746929688 2.42817526,3.32321133 C0.939435581,4.924575 0.108912683,7.06734492 0.113019391,9.29623711 C0.113019391,9.6607582 0.396782726,9.95625 0.746816656,9.95625 C1.09685059,9.95625 1.38056152,9.6607582 1.38056152,9.29623711 C1.38134135,5.28665977 4.50316422,2.03686875 8.35342605,2.03768086 C10.3088405,2.03806758 12.1741656,2.89368281 13.4944612,4.39573711 L10.6868742,5.37053906 C10.3543679,5.48574258 10.1744492,5.85981562 10.2850741,6.20608359 C10.3956991,6.55235156 10.7549054,6.7397168 11.0874116,6.62451328 L14.8900293,5.30452617 C15.1496025,5.21449805 15.3243967,4.96111992 15.3235457,4.67622422 L15.3235457,0.716224219 C15.3235457,0.351741797 15.0397574,0.05625 14.6897235,0.05625 Z" id="path-1"></path>
        <filter x="-13.1%" y="-20.2%" width="126.3%" height="140.4%" filterUnits="objectBoundingBox" id="filter-2">
            <feGaussianBlur stdDeviation="1.5" in="SourceAlpha" result="shadowBlurInner1"></feGaussianBlur>
            <feOffset dx="0" dy="1" in="shadowBlurInner1" result="shadowOffsetInner1"></feOffset>
            <feComposite in="shadowOffsetInner1" in2="SourceAlpha" operator="arithmetic" k2="-1" k3="1" result="shadowInnerInner1"></feComposite>
            <feColorMatrix values="0 0 0 0 0   0 0 0 0 0   0 0 0 0 0  0 0 0 0.5 0" type="matrix" in="shadowInnerInner1"></feColorMatrix>
        </filter>
    </defs>
    <g id="refresh" stroke="none" stroke-width="1" fill="none" fill-rule="evenodd">
        <g id="refresh-2" transform="translate(2.000000, 1.000000)" fill-rule="nonzero">
            <g id="refresh">
                <g id="Path">
                    <use fill="#0C86D9" xlink:href="#path-1"></use>
                    <use fill="black" fill-opacity="1" filter="url(#filter-2)" xlink:href="#path-1"></use>
                </g>
                <path d="M15.584558,7.25625 C15.2345232,7.25625 14.9507745,7.55174064 14.9507745,7.91626031 C14.9499946,11.925822 11.8281641,15.1756003 7.97789291,15.1747882 C6.02247368,15.1744015 4.15714403,14.3187896 2.83684521,12.8167412 L5.64443909,11.841943 C5.97694614,11.72674 6.15686535,11.3526684 6.0462401,11.0064018 C5.93561485,10.6601351 5.57640771,10.4727706 5.24390066,10.5879737 L1.44127368,11.9079557 C1.18169983,11.9979834 1.00690524,12.2513606 1.00775623,12.5362552 L1.00775623,16.4962397 C1.00775623,16.8607594 1.29150811,17.15625 1.64154289,17.15625 C1.99157768,17.15625 2.27532643,16.8607594 2.27532643,16.4962397 L2.27532643,14.0852511 C5.5382329,17.3749386 10.7441926,17.2871925 13.903121,13.8892628 C15.3918643,12.2879053 16.2223893,10.1451438 16.2182825,7.91626031 C16.2182825,7.55174064 15.9345928,7.25625 15.584558,7.25625 Z" id="Path" fill="#1769AA"></path>
            </g>
        </g>
    </g>
</svg>