<?xml version="1.0" encoding="UTF-8"?>
<svg width="20px" height="19px" viewBox="0 0 20 19" version="1.1" xmlns="http://www.w3.org/2000/svg" xmlns:xlink="http://www.w3.org/1999/xlink">
    <!-- Generator: Sketch 52.6 (67491) - http://www.bohemiancoding.com/sketch -->
    <title>Group</title>
    <desc>Created with Sketch.</desc>
    <g id="Page-1" stroke="none" stroke-width="1" fill="none" fill-rule="evenodd">
        <g id="threeDots" transform="translate(0.000000, -1.000000)" fill="#8BB5D2" fill-rule="nonzero">
            <g id="Group">
                <path d="M10.5,18 C9.6715729,18 9,17.3284271 9,16.5 C9,15.6715729 9.6715729,15 10.5,15 C11.3284271,15 12,15.6715729 12,16.5 C12,17.3284271 11.3284271,18 10.5,18 Z M10.5,12 C9.6715729,12 9,11.3284271 9,10.5 C9,9.67157288 9.6715729,9 10.5,9 C11.3284271,9 12,9.67157288 12,10.5 C12,11.3284271 11.3284271,12 10.5,12 Z M10.5,6 C9.6715729,6 9,5.32842712 9,4.5 C9,3.67157288 9.6715729,3 10.5,3 C11.3284271,3 12,3.67157288 12,4.5 C12,5.32842712 11.3284271,6 10.5,6 Z" id="Combined-Shape"></path>
            </g>
        </g>
    </g>
</svg>